<svg id='Greenery_24' width='24' height='24' viewBox='0 0 24 24' xmlns='http://www.w3.org/2000/svg' xmlns:xlink='http://www.w3.org/1999/xlink'><rect width='24' height='24' stroke='none' fill='#000000' opacity='0'/>


<g transform="matrix(0.16 0 0 0.16 12 12)" >
<g style="" >
<g transform="matrix(1 0 0 1 10.22 5.25)" >
<path style="stroke: none; stroke-width: 1; stroke-dasharray: none; stroke-linecap: butt; stroke-dashoffset: 0; stroke-linejoin: miter; stroke-miterlimit: 4; fill: rgb(43,158,125); fill-rule: nonzero; opacity: 1;" transform=" translate(-74.22, -69.25)" d="M 106.7 84.5 C 105.9 84.2 104.3 83.9 104.3 83.9 C 110.1 84 115.6 80.60000000000001 117.8 74.80000000000001 C 120.5 67.60000000000001 116.8 59.500000000000014 109.6 56.80000000000001 C 106.39999999999999 55.60000000000001 103 55.70000000000001 100.1 56.70000000000001 L 100.1 56.70000000000001 L 100 56.30000000000001 C 102.5 54.40000000000001 104.5 51.80000000000001 105.7 48.60000000000001 C 109.10000000000001 39.50000000000001 104.5 29.500000000000007 95.4 26.10000000000001 C 86.30000000000001 22.70000000000001 76.30000000000001 27.300000000000008 72.9 36.400000000000006 C 71.5 40.2 71.5 44.2 72.60000000000001 47.800000000000004 C 71.2 44.300000000000004 68.4 41.400000000000006 64.60000000000001 40.00000000000001 C 57.400000000000006 37.300000000000004 49.30000000000001 41.00000000000001 46.60000000000001 48.2 C 44.50000000000001 53.900000000000006 46.30000000000001 60.2 50.80000000000001 63.900000000000006 C 50.80000000000001 63.900000000000006 49.40000000000001 63.10000000000001 48.60000000000001 62.800000000000004 C 41.400000000000006 60.1 33.30000000000001 63.800000000000004 30.60000000000001 71 C 29.300000000000008 74.5 29.60000000000001 77.9 30.90000000000001 81.1 C 37.80000000000001 98.6 60.20000000000001 105.6 65.2 106.89999999999999 L 65.2 106.89999999999999 C 69.9 109.19999999999999 91.4 118.6 108 109.89999999999999 C 111.1 108.3 113.6 105.89999999999999 114.9 102.39999999999999 C 117.6 95.3 114 87.2 106.7 84.5 z" stroke-linecap="round" />
</g>
<g transform="matrix(1 0 0 1 34.91 5.29)" >
<path style="stroke: none; stroke-width: 1; stroke-dasharray: none; stroke-linecap: butt; stroke-dashoffset: 0; stroke-linejoin: miter; stroke-miterlimit: 4; fill: rgb(68,75,84); fill-rule: nonzero; opacity: 1;" transform=" translate(-98.91, -69.29)" d="M 111.7 85 C 110.7 85 109.7 84.5 109.10000000000001 83.5 C 108.30000000000001 82.1 108.80000000000001 80.2 110.2 79.4 C 112.4 78.10000000000001 114.10000000000001 76.2 115 73.80000000000001 C 116 71.00000000000001 115.9 68.10000000000001 114.7 65.4 C 113.5 62.7 111.3 60.7 108.5 59.7 C 106.1 58.800000000000004 103.5 58.800000000000004 101 59.7 C 100.2 60 99.2 59.900000000000006 98.5 59.400000000000006 C 97.7 58.900000000000006 97.2 58.2 97.1 57.300000000000004 L 97 56.8 C 96.8 55.699999999999996 97.3 54.599999999999994 98.1 54 C 100.3 52.3 101.89999999999999 50.1 102.8 47.6 C 105.6 40.1 101.8 31.700000000000003 94.3 28.900000000000002 C 89.8 27.200000000000003 84.7 27.900000000000002 80.8 30.700000000000003 C 79.5 31.700000000000003 77.6 31.300000000000004 76.6 30.000000000000004 C 75.6 28.700000000000003 76 26.800000000000004 77.3 25.800000000000004 C 82.89999999999999 21.800000000000004 90 20.900000000000006 96.4 23.300000000000004 C 101.5 25.200000000000003 105.60000000000001 29.000000000000004 107.9 34 C 110.2 39 110.4 44.6 108.5 49.7 C 108.1 50.900000000000006 107.5 52 106.9 53.1 C 108.2 53.300000000000004 109.4 53.6 110.7 54 C 119.5 57.3 124 67.1 120.7 75.9 C 119.3 79.60000000000001 116.7 82.7 113.3 84.60000000000001 C 112.8 84.9 112.3 85 111.7 85 z M 92.1 116.6 C 90.3 116.6 88.5 116.5 86.69999999999999 116.3 C 85.1 116.1 83.89999999999999 114.7 83.99999999999999 113 C 84.19999999999999 111.4 85.69999999999999 110.2 87.29999999999998 110.3 C 94.79999999999998 111.1 101.29999999999998 110.1 106.59999999999998 107.3 C 109.29999999999998 105.89999999999999 111.09999999999998 104 112.09999999999998 101.39999999999999 C 113.09999999999998 98.6 112.99999999999999 95.6 111.69999999999997 92.89999999999999 C 110.99999999999997 91.39999999999999 111.59999999999998 89.6 113.09999999999998 88.89999999999999 C 114.59999999999998 88.19999999999999 116.39999999999998 88.8 117.09999999999998 90.3 C 119.09999999999998 94.5 119.29999999999998 99.2 117.59999999999998 103.5 C 116.09999999999998 107.5 113.29999999999998 110.6 109.29999999999998 112.6 C 104.4 115.3 98.6 116.6 92.1 116.6 z" stroke-linecap="round" />
</g>
<g transform="matrix(1 0 0 1 -9.7 2.74)" >
<path style="stroke: none; stroke-width: 1; stroke-dasharray: none; stroke-linecap: butt; stroke-dashoffset: 0; stroke-linejoin: miter; stroke-miterlimit: 4; fill: rgb(82,221,178); fill-rule: nonzero; opacity: 1;" transform=" translate(-54.3, -66.74)" d="M 85.3 74.2 C 84.5 74.2 82.89999999999999 74.4 82.89999999999999 74.4 C 88.39999999999999 72.5 92.3 67.30000000000001 92.3 61.2 C 92.3 53.5 86 47.2 78.3 47.2 C 74.89999999999999 47.2 71.8 48.400000000000006 69.3 50.5 L 69.3 50.5 L 69.1 50.1 C 70.8 47.4 71.8 44.300000000000004 71.8 40.900000000000006 C 71.8 31.200000000000006 64 23.400000000000006 54.3 23.400000000000006 C 44.599999999999994 23.400000000000006 36.8 31.200000000000006 36.8 40.900000000000006 C 36.8 45.00000000000001 38.199999999999996 48.7 40.5 51.7 C 37.9 49 34.3 47.2 30.3 47.2 C 22.6 47.2 16.3 53.5 16.3 61.2 C 16.3 67.3 20.3 72.5 25.700000000000003 74.4 C 25.700000000000003 74.4 24.1 74.2 23.300000000000004 74.2 C 15.600000000000005 74.2 9.300000000000004 80.5 9.300000000000004 88.2 C 9.300000000000004 91.9 10.800000000000004 95 13.100000000000005 97.60000000000001 C 25.700000000000003 111.60000000000001 49.10000000000001 110.30000000000001 54.30000000000001 109.80000000000001 L 54.30000000000001 109.80000000000001 C 59.500000000000014 110.30000000000001 82.9 111.60000000000001 95.50000000000001 97.60000000000001 C 97.90000000000002 95.00000000000001 99.30000000000001 91.9 99.30000000000001 88.2 C 99.3 80.4 93 74.2 85.3 74.2 z" stroke-linecap="round" />
</g>
<g transform="matrix(1 0 0 1 -37.18 39.57)" >
<path style="stroke: none; stroke-width: 1; stroke-dasharray: none; stroke-linecap: butt; stroke-dashoffset: 0; stroke-linejoin: miter; stroke-miterlimit: 4; fill: rgb(68,75,84); fill-rule: nonzero; opacity: 1;" transform=" translate(-26.82, -103.57)" d="M 40.6 112.6 C 40.5 112.6 40.4 112.6 40.300000000000004 112.6 C 31.400000000000006 111.69999999999999 19.100000000000005 108.69999999999999 10.900000000000006 99.5 C 9.800000000000006 98.3 9.900000000000006 96.4 11.100000000000005 95.3 C 12.300000000000004 94.2 14.200000000000005 94.3 15.300000000000004 95.5 C 22.200000000000003 103.2 33 105.8 40.800000000000004 106.6 C 42.400000000000006 106.8 43.6 108.19999999999999 43.50000000000001 109.89999999999999 C 43.4 111.5 42.1 112.6 40.6 112.6 z" stroke-linecap="round" />
</g>
<g transform="matrix(1 0 0 1 -11.67 2.7)" >
<path style="stroke: none; stroke-width: 1; stroke-dasharray: none; stroke-linecap: butt; stroke-dashoffset: 0; stroke-linejoin: miter; stroke-miterlimit: 4; fill: rgb(68,75,84); fill-rule: nonzero; opacity: 1;" transform=" translate(-52.33, -66.7)" d="M 13.1 100.5 C 12.299999999999999 100.5 11.5 100.2 10.899999999999999 99.5 C 7.799999999999999 96.2 6.299999999999999 92.3 6.299999999999999 88.1 C 6.299999999999999 80.8 10.899999999999999 74.6 17.4 72.19999999999999 C 14.799999999999999 69.19999999999999 13.299999999999999 65.29999999999998 13.299999999999999 61.09999999999999 C 13.299999999999999 52.999999999999986 19.099999999999998 45.89999999999999 27.1 44.39999999999999 C 28.700000000000003 44.099999999999994 30.3 45.19999999999999 30.6 46.79999999999999 C 30.900000000000002 48.39999999999999 29.8 49.99999999999999 28.200000000000003 50.29999999999999 C 23.000000000000004 51.29999999999999 19.300000000000004 55.79999999999999 19.300000000000004 61.099999999999994 C 19.300000000000004 65.8 22.300000000000004 70 26.700000000000003 71.5 C 28.200000000000003 72 29.000000000000004 73.5 28.6 75 C 28.200000000000003 76.5 26.8 77.5 25.3 77.3 C 24.7 77.2 23.7 77.1 23.3 77.1 C 17.200000000000003 77.1 12.3 82 12.3 88.1 C 12.3 90.89999999999999 13.3 93.3 15.3 95.5 C 16.400000000000002 96.7 16.400000000000002 98.6 15.100000000000001 99.7 C 14.6 100.3 13.9 100.5 13.1 100.5 z M 40.5 54.6 C 39.6 54.6 38.7 54.2 38.1 53.5 C 35.2 49.9 33.7 45.5 33.7 40.9 C 33.7 29.599999999999998 42.900000000000006 20.4 54.2 20.4 C 65.5 20.4 74.7 29.599999999999998 74.7 40.9 C 74.7 42.6 73.4 43.9 71.7 43.9 C 70 43.9 68.7 42.6 68.7 40.9 C 68.7 32.9 62.2 26.4 54.2 26.4 C 46.2 26.4 39.7 32.9 39.7 40.9 C 39.7 44.199999999999996 40.800000000000004 47.199999999999996 42.800000000000004 49.8 C 43.800000000000004 51.099999999999994 43.6 53 42.300000000000004 54 C 41.8 54.4 41.2 54.6 40.5 54.6 z M 61.1 113 C 59.300000000000004 113 57.4 112.9 55.4 112.8 C 53.699999999999996 112.7 52.5 111.3 52.6 109.6 C 52.7 107.89999999999999 54.1 106.69999999999999 55.800000000000004 106.8 C 61.800000000000004 107.2 82.30000000000001 107.6 93.2 95.5 C 94.3 94.3 96.2 94.2 97.4 95.3 C 98.60000000000001 96.39999999999999 98.7 98.3 97.60000000000001 99.5 C 93.9 103.8 83.1 113 61.1 113 z" stroke-linecap="round" />
</g>
<g transform="matrix(1 0 0 1 11.85 9)" >
<path style="stroke: none; stroke-width: 1; stroke-dasharray: none; stroke-linecap: butt; stroke-dashoffset: 0; stroke-linejoin: miter; stroke-miterlimit: 4; fill: rgb(68,75,84); fill-rule: nonzero; opacity: 1;" transform=" translate(-75.85, -73)" d="M 95.5 100.5 C 94.8 100.5 94 100.2 93.5 99.7 C 92.3 98.60000000000001 92.2 96.7 93.3 95.5 C 95.3 93.3 96.3 90.9 96.3 88.1 C 96.3 82 91.39999999999999 77.1 85.3 77.1 C 84.89999999999999 77.1 83.8 77.19999999999999 83.3 77.3 C 81.8 77.5 80.3 76.5 80 75 C 79.7 73.5 80.5 72 81.9 71.5 C 86.30000000000001 70 89.30000000000001 65.8 89.30000000000001 61.1 C 89.30000000000001 55 84.4 50.1 78.30000000000001 50.1 C 75.20000000000002 50.1 72.4 51.300000000000004 70.30000000000001 53.6 C 69.20000000000002 54.800000000000004 67.4 54.9 66.20000000000002 53.800000000000004 C 65.00000000000001 52.800000000000004 64.80000000000001 50.900000000000006 65.80000000000001 49.7 C 67.80000000000001 47.1 68.9 44 68.9 40.800000000000004 C 68.9 32.800000000000004 62.400000000000006 26.300000000000004 54.400000000000006 26.300000000000004 C 52.7 26.300000000000004 51.400000000000006 25.000000000000004 51.400000000000006 23.300000000000004 C 51.400000000000006 21.600000000000005 52.7 20.300000000000004 54.400000000000006 20.300000000000004 C 65.7 20.300000000000004 74.9 29.500000000000004 74.9 40.800000000000004 C 74.9 42.1 74.80000000000001 43.300000000000004 74.60000000000001 44.6 C 75.9 44.300000000000004 77.10000000000001 44.2 78.4 44.2 C 87.80000000000001 44.2 95.4 51.800000000000004 95.4 61.2 C 95.4 65.4 93.9 69.2 91.30000000000001 72.3 C 97.80000000000001 74.7 102.4 80.89999999999999 102.4 88.2 C 102.4 92.5 100.80000000000001 96.3 97.80000000000001 99.60000000000001 C 97.1 100.2 96.3 100.5 95.5 100.5 z M 59.1 125.7 C 58.2 125.7 57.300000000000004 125.3 56.7 124.5 C 56.2 123.9 44.900000000000006 108.4 51.2 44.400000000000006 C 51.400000000000006 42.800000000000004 52.800000000000004 41.50000000000001 54.5 41.7 C 56.1 41.900000000000006 57.4 43.300000000000004 57.2 45 C 51.300000000000004 105.7 61.400000000000006 120.7 61.5 120.9 C 62.5 122.2 62.3 124.10000000000001 61 125.10000000000001 C 60.4 125.5 59.7 125.7 59.1 125.7 z" stroke-linecap="round" />
</g>
<g transform="matrix(1 0 0 1 -7.83 8.9)" >
<path style="stroke: none; stroke-width: 1; stroke-dasharray: none; stroke-linecap: butt; stroke-dashoffset: 0; stroke-linejoin: miter; stroke-miterlimit: 4; fill: rgb(68,75,84); fill-rule: nonzero; opacity: 1;" transform=" translate(-56.17, -72.9)" d="M 50.4 77.6 C 49.699999999999996 77.6 49.1 77.39999999999999 48.5 76.89999999999999 L 38.7 68.89999999999999 C 37.400000000000006 67.89999999999999 37.2 65.99999999999999 38.300000000000004 64.69999999999999 C 39.300000000000004 63.39999999999999 41.2 63.19999999999999 42.50000000000001 64.29999999999998 L 52.30000000000001 72.29999999999998 C 53.60000000000001 73.29999999999998 53.80000000000001 75.19999999999999 52.70000000000001 76.49999999999999 C 52.1 77.2 51.2 77.6 50.4 77.6 z M 52.8 65.9 C 51.9 65.9 51 65.5 50.4 64.7 C 49.4 63.400000000000006 49.699999999999996 61.5 51 60.5 L 57.3 55.8 C 58.599999999999994 54.8 60.5 55.099999999999994 61.5 56.4 C 62.5 57.699999999999996 62.2 59.6 60.9 60.6 L 54.6 65.3 C 54 65.7 53.4 65.9 52.8 65.9 z M 61.5 90.6 C 60.5 90.6 59.5 90.1 58.9 89.19999999999999 C 58 87.79999999999998 58.5 85.89999999999999 59.9 85.1 L 70.2 78.69999999999999 C 71.60000000000001 77.79999999999998 73.5 78.29999999999998 74.3 79.69999999999999 C 75.2 81.1 74.7 82.99999999999999 73.3 83.79999999999998 L 63 90.19999999999999 C 62.6 90.4 62 90.6 61.5 90.6 z" stroke-linecap="round" />
</g>
<g transform="matrix(1 0 0 1 -15.5 -28.85)" >
<path style="stroke: none; stroke-width: 1; stroke-dasharray: none; stroke-linecap: butt; stroke-dashoffset: 0; stroke-linejoin: miter; stroke-miterlimit: 4; fill: rgb(255,255,255); fill-rule: nonzero; opacity: 1;" transform=" translate(-48.5, -35.15)" d="M 46.6 35.3 C 45.800000000000004 35.3 45 35 44.4 34.3 C 43.3 33.099999999999994 43.4 31.199999999999996 44.6 30.099999999999998 C 47.300000000000004 27.7 50.7 26.4 54.3 26.4 C 56 26.4 57.3 27.7 57.3 29.4 C 57.3 31.099999999999998 56 32.4 54.3 32.4 C 52.199999999999996 32.4 50.199999999999996 33.199999999999996 48.599999999999994 34.6 C 48 35 47.3 35.3 46.6 35.3 z M 42.8 43.8 C 42.599999999999994 43.8 42.4 43.8 42.199999999999996 43.699999999999996 C 41.99999999999999 43.699999999999996 41.8 43.599999999999994 41.599999999999994 43.49999999999999 C 41.39999999999999 43.39999999999999 41.3 43.29999999999999 41.099999999999994 43.199999999999996 C 40.89999999999999 43.099999999999994 40.8 42.99999999999999 40.599999999999994 42.8 C 39.99999999999999 42.199999999999996 39.699999999999996 41.5 39.699999999999996 40.699999999999996 C 39.699999999999996 39.89999999999999 39.99999999999999 39.099999999999994 40.599999999999994 38.599999999999994 C 41.699999999999996 37.49999999999999 43.699999999999996 37.49999999999999 44.8 38.599999999999994 C 44.9 38.699999999999996 45.099999999999994 38.89999999999999 45.199999999999996 39.099999999999994 C 45.3 39.3 45.4 39.39999999999999 45.49999999999999 39.599999999999994 C 45.599999999999994 39.8 45.599999999999994 39.99999999999999 45.699999999999996 40.199999999999996 C 45.699999999999996 40.4 45.8 40.599999999999994 45.8 40.8 C 45.8 41 45.8 41.199999999999996 45.699999999999996 41.4 C 45.699999999999996 41.6 45.599999999999994 41.8 45.49999999999999 42 C 45.39999999999999 42.2 45.29999999999999 42.4 45.199999999999996 42.5 C 45.099999999999994 42.7 44.99999999999999 42.8 44.8 43 C 44.699999999999996 43.1 44.5 43.3 44.4 43.4 C 44.199999999999996 43.5 44.1 43.6 43.9 43.699999999999996 C 43.699999999999996 43.8 43.5 43.8 43.3 43.9 C 43.2 43.8 43 43.8 42.8 43.8 z" stroke-linecap="round" />
</g>
<g transform="matrix(1 0 0 1 -3 60)" >
<path style="stroke: none; stroke-width: 1; stroke-dasharray: none; stroke-linecap: butt; stroke-dashoffset: 0; stroke-linejoin: miter; stroke-miterlimit: 4; fill: rgb(68,75,84); fill-rule: nonzero; opacity: 1;" transform=" translate(-61, -124)" d="M 88 127 L 34 127 C 32.3 127 31 125.7 31 124 C 31 122.3 32.3 121 34 121 L 88 121 C 89.7 121 91 122.3 91 124 C 91 125.7 89.7 127 88 127 z" stroke-linecap="round" />
</g>
<g transform="matrix(1 0 0 1 39 59.86)" >
<path style="stroke: none; stroke-width: 1; stroke-dasharray: none; stroke-linecap: butt; stroke-dashoffset: 0; stroke-linejoin: miter; stroke-miterlimit: 4; fill: rgb(68,75,84); fill-rule: nonzero; opacity: 1;" transform=" translate(-103, -123.86)" d="M 103 127 C 102.8 127 102.6 127 102.4 126.9 C 102.2 126.9 102 126.80000000000001 101.80000000000001 126.7 C 101.60000000000001 126.60000000000001 101.50000000000001 126.5 101.30000000000001 126.4 C 101.10000000000001 126.30000000000001 101.00000000000001 126.2 100.9 126 C 100.80000000000001 125.9 100.60000000000001 125.7 100.5 125.6 C 100.4 125.39999999999999 100.3 125.3 100.2 125.1 C 100.10000000000001 124.89999999999999 100.10000000000001 124.69999999999999 100 124.5 C 100 124.3 99.9 124.1 99.9 123.9 C 99.9 123.7 99.9 123.5 100 123.30000000000001 C 100 123.10000000000001 100.1 122.9 100.2 122.70000000000002 C 100.3 122.50000000000001 100.4 122.40000000000002 100.5 122.20000000000002 C 100.6 122.00000000000001 100.7 121.90000000000002 100.9 121.70000000000002 C 101.10000000000001 121.50000000000001 101.2 121.40000000000002 101.30000000000001 121.30000000000001 C 101.50000000000001 121.20000000000002 101.60000000000001 121.10000000000001 101.80000000000001 121.00000000000001 C 102.00000000000001 120.90000000000002 102.20000000000002 120.90000000000002 102.4 120.80000000000001 C 102.80000000000001 120.70000000000002 103.2 120.70000000000002 103.60000000000001 120.80000000000001 C 103.80000000000001 120.80000000000001 104.00000000000001 120.9 104.2 121.00000000000001 C 104.4 121.10000000000001 104.60000000000001 121.20000000000002 104.7 121.30000000000001 C 104.9 121.4 105 121.50000000000001 105.10000000000001 121.70000000000002 C 105.2 121.80000000000001 105.4 122.00000000000001 105.50000000000001 122.20000000000002 C 105.60000000000001 122.40000000000002 105.70000000000002 122.50000000000001 105.80000000000001 122.70000000000002 C 105.9 122.90000000000002 105.9 123.10000000000002 106.00000000000001 123.30000000000001 C 106.00000000000001 123.50000000000001 106.10000000000001 123.70000000000002 106.10000000000001 123.9 C 106.10000000000001 124.10000000000001 106.10000000000001 124.30000000000001 106.00000000000001 124.5 C 106.00000000000001 124.7 105.90000000000002 124.9 105.80000000000001 125.1 C 105.70000000000002 125.3 105.60000000000001 125.5 105.50000000000001 125.6 C 105.40000000000002 125.8 105.30000000000001 125.89999999999999 105.10000000000001 126 C 104.6 126.7 103.8 127 103 127 z" stroke-linecap="round" />
</g>
</g>
</g>
</svg>